# xmcd
#
# Track frame offsets: 
#        150
#        13183
#        27572
#        40965
#        54468
#        69983
#        84294
#        99777
#        112705
#        125671
#        140579
#        152927
#        165161
#        180088
#        195656
#        211187
#        223112
#
# Disc length: 3192 seconds
#
# Revision: 0
# Processed by: cddbd v1.5.2PL0 Copyright (c) Steve Scherf et al.
# Submitted via: ExactAudioCopy v1.3
#
DISCID=da0c7611
DTITLE=The New York Botainical Garden - Orchid Blues
DYEAR=2004
DGENRE=
TTITLE0=Royal Garden Blues
TTITLE1=Limehouse Blues
TTITLE2=Farewell Blues
TTITLE3=Beale Street Blues
TTITLE4=Wang-Wang Blues
TTITLE5=Hesitation Blues
TTITLE6=Jazz Me Blues
TTITLE7=Blues
TTITLE8=Cannon Ball Blues
TTITLE9=Weary Blues
TTITLE10=Chicago Blues
TTITLE11=Memphis Blues
TTITLE12=Dallas Blues
TTITLE13=St. Louis Blues
TTITLE14=Jelly Roll Blues
TTITLE15=Yellow Dog Blues
TTITLE16=Orchid Blues
EXTD=
EXTT0=
EXTT1=
EXTT2=
EXTT3=
EXTT4=
EXTT5=
EXTT6=
EXTT7=
EXTT8=
EXTT9=
EXTT10=
EXTT11=
EXTT12=
EXTT13=
EXTT14=
EXTT15=
EXTT16=
PLAYORDER=
